<svg 
          width="14" 
          height="14" fill="none" 
          xmlns="http://www.w3.org/2000/svg">
          <path d="M 0.5675683282788526 10.405404313103372 L 0.16623702292378378 10.00409605738625 C 0.059799039287826 10.11049606521669 0 10.254885379225279 0 10.405404313103372 L 0.5675683282788526 10.405404313103372 Z M 10.405419351778965 0.5675656865161881 L 10.806728103994972 0.16623488896446112 C 10.58507375585286 -0.05541162965482038 10.22576494770507 -0.05541162965482038 10.004110599562958 0.16623488896446112 L 10.405419351778965 0.5675656865161881 Z M 13.432450435932846 3.5945931609481767 L 13.833759188148854 3.9959241502013487 C 14.055413536290965 3.774277631582067 14.055413536290965 3.4149086903142867 13.833759188148854 3.193262171695005 L 13.432450435932846 3.5945931609481767 Z M 3.5945994124327334 13.432432373916251 L 3.5945994124327334 13.999999999999998 C 3.7451260991111224 13.999999999999998 3.889492553726732 13.94021631442831 3.99593053736269 13.833740629633375 L 3.5945994124327334 13.432432373916251 Z M 0.5675683282788526 13.432432373916251 L 0 13.432432373916251 C 0 13.745881060871541 0.2541116982230188 13.999999999999998 0.5675683282788526 13.999999999999998 L 0.5675683282788526 13.432432373916251 Z M 6.621630496586614 12.864864747832504 C 6.308181421832366 12.864864747832504 6.054062168307762 13.118983686960961 6.054062168307762 13.432432373916251 C 6.054062168307762 13.745881060871541 6.308181421832366 13.999999999999998 6.621630496586614 13.999999999999998 L 6.621630496586614 12.864864747832504 Z M 13.05407155041361 13.999999999999998 C 13.367520625167858 13.999999999999998 13.621639878692463 13.745881060871541 13.621639878692463 13.432432373916251 C 13.621639878692463 13.118983686960961 13.367520625167858 12.864864747832504 13.05407155041361 12.864864747832504 L 13.05407155041361 13.999999999999998 Z M 0.968899814059034 10.806712568820496 L 10.806728103994972 0.9688965404506931 L 10.004110599562958 0.16623488896446112 L 0.16623702292378378 10.00409605738625 L 0.968899814059034 10.806712568820496 Z M 10.004110599562958 0.9688965404506931 L 13.03114168371684 3.9959241502013487 L 13.833759188148854 3.193262171695005 L 10.806728103994972 0.16623488896446112 L 10.004110599562958 0.9688965404506931 Z M 13.03114168371684 3.193262171695005 L 3.193267926652552 13.031124118199127 L 3.99593053736269 13.833740629633375 L 13.833759188148854 3.9959241502013487 L 13.03114168371684 3.193262171695005 Z M 3.5945994124327334 12.864864747832504 L 0.5675683282788526 12.864864747832504 L 0.5675683282788526 13.999999999999998 L 3.5945994124327334 13.999999999999998 L 3.5945994124327334 12.864864747832504 Z M 1.1351366565577052 13.432432373916251 L 1.1351366565577052 10.405404313103372 L 0 10.405404313103372 L 0 13.432432373916251 L 1.1351366565577052 13.432432373916251 Z M 7.733837286447548 3.2391673154230185 L 10.760868370601429 6.2661715601505135 L 11.563485875033443 5.463533036879775 L 8.536454790879562 2.4365051564917852 L 7.733837286447548 3.2391673154230185 Z M 6.621630496586614 13.999999999999998 L 13.05407155041361 13.999999999999998 L 13.05407155041361 12.864864747832504 L 6.621630496586614 12.864864747832504 L 6.621630496586614 13.999999999999998 Z" fill="rgb(101.00000157952309,0,252.00000017881393)"/>
        </svg>